<?xml version="1.0" encoding="UTF-8" standalone="no"?>
<!DOCTYPE svg PUBLIC "-//W3C//DTD SVG 1.1//EN"
 "http://www.w3.org/Graphics/SVG/1.1/DTD/svg11.dtd">
<!-- Generated by graphviz version 12.2.1 (20241206.2353)
 -->
<!-- Pages: 1 -->
<svg width="836pt" height="98pt"
 viewBox="0.00 0.00 836.00 98.00" xmlns="http://www.w3.org/2000/svg" xmlns:xlink="http://www.w3.org/1999/xlink">
<g id="graph0" class="graph" transform="scale(1 1) rotate(0) translate(4 94)">
<!-- 1 -->
<g id="node1" class="node">
<title>1</title>
<path fill="#ffcc99" stroke="#0066cc" d="M46,-90C46,-90 12,-90 12,-90 6,-90 0,-84 0,-78 0,-78 0,-66 0,-66 0,-60 6,-54 12,-54 12,-54 46,-54 46,-54 52,-54 58,-60 58,-66 58,-66 58,-78 58,-78 58,-84 52,-90 46,-90"/>
<text text-anchor="middle" x="29" y="-66.97" font-family="SimSun" font-size="12.00">SSH连接</text>
</g>
<!-- 1&#45;1 -->
<g id="node4" class="node">
<title>1&#45;1</title>
<path fill="#ffcc99" stroke="#0066cc" d="M170,-90C170,-90 106,-90 106,-90 100,-90 94,-84 94,-78 94,-78 94,-66 94,-66 94,-60 100,-54 106,-54 106,-54 170,-54 170,-54 176,-54 182,-60 182,-66 182,-66 182,-78 182,-78 182,-84 176,-90 170,-90"/>
<text text-anchor="middle" x="138" y="-66.97" font-family="SimSun" font-size="12.00">下载需要的包</text>
</g>
<!-- 1&#45;&gt;1&#45;1 -->
<g id="edge1" class="edge">
<title>1&#45;&gt;1&#45;1</title>
<path fill="none" stroke="#666666" d="M58.39,-72C65.8,-72 74.04,-72 82.31,-72"/>
<polygon fill="#666666" stroke="#666666" points="82.03,-75.5 92.03,-72 82.03,-68.5 82.03,-75.5"/>
</g>
<!-- 2 -->
<g id="node2" class="node">
<title>2</title>
<path fill="#e6f3ff" stroke="#0066cc" d="M318,-36C318,-36 278,-36 278,-36 272,-36 266,-30 266,-24 266,-24 266,-12 266,-12 266,-6 272,0 278,0 278,0 318,0 318,0 324,0 330,-6 330,-12 330,-12 330,-24 330,-24 330,-30 324,-36 318,-36"/>
<text text-anchor="middle" x="298" y="-12.97" font-family="SimSun" font-size="12.00">sftp连接</text>
</g>
<!-- 2&#45;1 -->
<g id="node8" class="node">
<title>2&#45;1</title>
<path fill="#ffcc99" stroke="#0066cc" d="M526,-63C526,-63 426,-63 426,-63 420,-63 414,-57 414,-51 414,-51 414,-39 414,-39 414,-33 420,-27 426,-27 426,-27 526,-27 526,-27 532,-27 538,-33 538,-39 538,-39 538,-51 538,-51 538,-57 532,-63 526,-63"/>
<text text-anchor="middle" x="476" y="-39.98" font-family="SimSun" font-size="12.00">传输源代码至服务器</text>
</g>
<!-- 2&#45;&gt;2&#45;1 -->
<g id="edge4" class="edge">
<title>2&#45;&gt;2&#45;1</title>
<path fill="none" stroke="#666666" d="M330.47,-22.83C350.44,-25.89 377.16,-29.99 402.19,-33.83"/>
<polygon fill="#666666" stroke="#666666" points="401.63,-37.29 412.05,-35.34 402.69,-30.37 401.63,-37.29"/>
</g>
<!-- 3 -->
<g id="node3" class="node">
<title>3</title>
<path fill="#e6f3ff" stroke="#0066cc" d="M164,-36C164,-36 112,-36 112,-36 106,-36 100,-30 100,-24 100,-24 100,-12 100,-12 100,-6 106,0 112,0 112,0 164,0 164,0 170,0 176,-6 176,-12 176,-12 176,-24 176,-24 176,-30 170,-36 164,-36"/>
<text text-anchor="middle" x="138" y="-12.97" font-family="SimSun" font-size="12.00">修改源代码</text>
</g>
<!-- 3&#45;&gt;2 -->
<g id="edge3" class="edge">
<title>3&#45;&gt;2</title>
<path fill="none" stroke="#666666" d="M176.44,-18C199.81,-18 229.97,-18 254.27,-18"/>
<polygon fill="#666666" stroke="#666666" points="254.16,-21.5 264.16,-18 254.16,-14.5 254.16,-21.5"/>
</g>
<!-- 1&#45;2 -->
<g id="node5" class="node">
<title>1&#45;2</title>
<path fill="#ffcc99" stroke="#0066cc" d="M366,-90C366,-90 230,-90 230,-90 224,-90 218,-84 218,-78 218,-78 218,-66 218,-66 218,-60 224,-54 230,-54 230,-54 366,-54 366,-54 372,-54 378,-60 378,-66 378,-66 378,-78 378,-78 378,-84 372,-90 366,-90"/>
<text text-anchor="middle" x="298" y="-66.97" font-family="SimSun" font-size="12.00">创建用于存放代码的文件夹</text>
</g>
<!-- 1&#45;1&#45;&gt;1&#45;2 -->
<g id="edge2" class="edge">
<title>1&#45;1&#45;&gt;1&#45;2</title>
<path fill="none" stroke="#666666" d="M182.17,-72C189.77,-72 197.94,-72 206.28,-72"/>
<polygon fill="#666666" stroke="#666666" points="206.21,-75.5 216.21,-72 206.21,-68.5 206.21,-75.5"/>
</g>
<!-- 1&#45;2&#45;&gt;2&#45;1 -->
<g id="edge5" class="edge">
<title>1&#45;2&#45;&gt;2&#45;1</title>
<path fill="none" stroke="#666666" d="M378.25,-59.84C386.31,-58.61 394.47,-57.35 402.46,-56.13"/>
<polygon fill="#666666" stroke="#666666" points="402.75,-59.62 412.1,-54.65 401.69,-52.71 402.75,-59.62"/>
</g>
<!-- 1&#45;3 -->
<g id="node6" class="node">
<title>1&#45;3</title>
<path fill="#ffcc99" stroke="#0066cc" d="M686,-63C686,-63 586,-63 586,-63 580,-63 574,-57 574,-51 574,-51 574,-39 574,-39 574,-33 580,-27 586,-27 586,-27 686,-27 686,-27 692,-27 698,-33 698,-39 698,-39 698,-51 698,-51 698,-57 692,-63 686,-63"/>
<text text-anchor="middle" x="636" y="-39.98" font-family="SimSun" font-size="12.00">下载项目所需要的包</text>
</g>
<!-- 1&#45;4 -->
<g id="node7" class="node">
<title>1&#45;4</title>
<path fill="#ffcc99" stroke="#0066cc" d="M816,-63C816,-63 746,-63 746,-63 740,-63 734,-57 734,-51 734,-51 734,-39 734,-39 734,-33 740,-27 746,-27 746,-27 816,-27 816,-27 822,-27 828,-33 828,-39 828,-39 828,-51 828,-51 828,-57 822,-63 816,-63"/>
<text text-anchor="middle" x="781" y="-39.98" font-family="SimSun" font-size="12.00">启动server.js</text>
</g>
<!-- 1&#45;3&#45;&gt;1&#45;4 -->
<g id="edge7" class="edge">
<title>1&#45;3&#45;&gt;1&#45;4</title>
<path fill="none" stroke="#666666" d="M698.47,-45C706.41,-45 714.51,-45 722.38,-45"/>
<polygon fill="#666666" stroke="#666666" points="722.18,-48.5 732.18,-45 722.18,-41.5 722.18,-48.5"/>
</g>
<!-- 2&#45;1&#45;&gt;1&#45;3 -->
<g id="edge6" class="edge">
<title>2&#45;1&#45;&gt;1&#45;3</title>
<path fill="none" stroke="#666666" d="M538.09,-45C546,-45 554.16,-45 562.23,-45"/>
<polygon fill="#666666" stroke="#666666" points="562.04,-48.5 572.04,-45 562.04,-41.5 562.04,-48.5"/>
</g>
</g>
</svg>
